<svg xmlns="http://www.w3.org/2000/svg" xmlns:xlink="http://www.w3.org/1999/xlink" version="1.1" x="0px" y="0px" viewBox="0 0 115.193 82.799" enable-background="new 0 0 115.193 82.799" xml:space="preserve" style="fill: rgb(0, 0, 0);" role="img" aria-label="云形图标 cloud icon">
<g id="__id2_sscjsxi3mi">
	<path fill-rule="evenodd" clip-rule="evenodd" d="M95.548,38.189c-5.372-1.23-5.372-1.23-5.818-6.385   c-1.248-13-11.962-22.802-24.922-22.802c-9.721,0-18.669,5.759-22.795,14.657c-1.951,4.242-2.401,5.818-6.53,4.172   c-2.51-0.998-4.871-0.829-4.871-0.829c-4.964,0-9,4.036-9,9c0,0.823,0.168,1.737,0.519,2.784c2.071,5.091,1.731,5.653-3.205,8.49   c-5.08,2.961-8.114,8.16-8.114,13.922c0,8.934,7.269,16.2,16.2,16.203h64.796v-0.003c10.919,0,19.8-8.88,19.8-19.8   C111.607,48.132,104.854,39.969,95.548,38.189z" style="fill: rgb(133, 217, 247);"></path>
</g>
<g id="__id3_sscjsxi3mi">
	<path fill-rule="evenodd" clip-rule="evenodd" d="M93.287,29.312C91.71,12.888,78.033,0,61.197,0   C48.168,0,37.011,7.734,31.871,18.829C30.322,18.337,28.71,18,27,18c-8.945,0-16.2,7.256-16.2,16.199   c0,1.779,0.357,3.459,0.886,5.056C4.727,43.312,0,50.766,0,59.396c0,12.923,10.477,23.399,23.4,23.399v0.003h64.796v-0.003   c14.915,0,26.997-12.083,26.997-27C115.193,42.63,105.761,31.696,93.287,29.312 M88.197,75.596V75.6H23.4   c-8.932-0.004-16.2-7.271-16.2-16.203c0-5.763,3.034-10.963,8.114-13.922c4.936-2.838,5.275-3.4,3.204-8.49   C18.169,35.936,18,35.021,18,34.199c0-4.964,4.036-9,9-9c0,0,2.361-0.168,4.871,0.83c4.129,1.645,4.579,0.07,6.53-4.174   c4.125-8.897,13.075-14.656,22.795-14.656c12.96,0,23.674,9.802,24.922,22.803c0.446,5.154,0.446,5.154,5.818,6.385   c9.306,1.778,16.059,9.941,16.059,19.409C107.996,66.715,99.116,75.596,88.197,75.596" style="fill: rgb(255, 255, 255);"></path>
	<circle cx="15.905" cy="64.047" r="1.884" style="fill: rgb(255, 255, 255);"></circle>
	<path fill-rule="evenodd" clip-rule="evenodd" d="M29.32,43.203c-0.007,0-0.007,0.004-0.014,0.004   c-8.443,0.006-15.286,6.852-15.286,15.296c0,0.995,0.807,1.8,1.8,1.8s1.8-0.805,1.8-1.8V58.5c0-6.459,5.238-11.697,11.696-11.697   h0.003c0.993,0,1.8-0.805,1.8-1.8S30.313,43.203,29.32,43.203" style="fill: rgb(255, 255, 255);"></path>
</g>
</svg>